<svg width="886" height="283" viewBox="0 0 886 283" fill="none" xmlns="http://www.w3.org/2000/svg">
<path d="M122.935 86.007C128.451 77.1598 134.3 72.2037 150.833 62.3611C172.88 49.2369 223.829 27.4925 226.135 33.5C228.119 38.6724 234.698 68.6649 232.635 71.5C231.695 72.7931 174.276 95.8891 168.788 99.4475C157.565 106.722 154.341 113.051 154.341 127.81V137.962L136.698 147.698C124.906 154.205 118.283 156.661 116.724 155.103C115.333 153.712 114.707 141.553 115.175 124.984C115.91 98.8126 116.361 96.5473 122.935 86.007Z" fill="black"/>
<path d="M65.9401 110.697C65.9401 102.031 67.5499 89.5189 69.5203 82.8929C73.5495 69.3221 75.6269 68.5569 88.4893 75.8923C103.864 84.6604 105.32 86.5698 102.95 94.8332C101.787 98.8893 100.835 111.895 100.835 123.735C100.835 135.578 100.112 145.265 99.2253 145.265C98.3413 145.265 90.4899 141.032 81.7778 135.857L65.9401 126.452V110.697Z" fill="#002855"/>
<path d="M189.264 102.955C189.248 102.069 195.78 97.6381 203.776 93.1052C211.774 88.5746 219.644 84.8511 221.27 84.8302C228.893 84.7395 263.684 112.295 263.677 118.421C263.674 120.349 246.245 131.768 237.466 135.594C236.461 136.032 231.589 132.734 226.639 128.261C221.689 123.791 211.262 116.63 203.466 112.348C195.671 108.067 189.278 103.841 189.264 102.955Z" fill="#E84A27"/>
<path d="M165.973 133.936C165.973 123.277 167.085 114.849 168.704 113.23C170.793 111.141 174.478 112.216 184.407 117.816C228.568 142.725 232.909 144.167 232.909 187.5C232.909 205.315 235.223 281.026 232.909 281.912C231.199 282.568 222.3 278.782 213.135 273.5C196.904 264.143 196.469 263.653 196.469 254.715C196.469 241.779 198.258 169.2 190.135 165C177.191 158.309 165.973 153.363 165.973 133.936Z" fill="#002855"/>
<path d="M244.973 157.805C242.17 150.437 244.101 147.756 258.254 139.362C263.158 136.455 268.862 133.975 270.933 133.855C276.027 133.559 278.119 231.685 278.119 250.419V264.692L262.421 273.885C253.785 278.944 245.934 282.595 244.973 282C244.01 281.407 243.224 271.632 243.224 260.277C243.224 248.923 246.306 161.308 244.973 157.805Z" fill="black"/>
<path d="M7.24536 155.527C7.24536 153.892 14.0499 148.591 22.3666 143.751C39.8188 133.593 42.7709 133.183 53.1348 139.5C57.3245 142.054 114.444 168.506 118.283 168.506C122.121 168.506 128.688 166.415 132.878 163.861C137.068 161.308 142.242 159.219 144.375 159.219C149.174 159.219 179.931 177.265 179.931 180.081C179.931 183.226 140.467 204.99 129.477 207.904C124.119 209.325 115.468 209.804 110.25 208.972C99.181 207.202 7.24536 159.894 7.24536 155.527Z" fill="#E84A27"/>
<path d="M138.057 221.128C145.094 218.214 157.133 212.077 164.81 207.49L178.768 199.15L179.447 217.849C179.977 232.404 179.305 237.455 176.418 240.648C170.642 247.028 146.041 257.143 135.118 257.626L125.262 258.064V242.246V226.427L138.057 221.128Z" fill="black"/>
<path d="M4.13389 209.656C0.842118 206.679 0 202.199 0 187.67C0 177.635 0.991021 169.425 2.20072 169.425C3.41274 169.425 67.622 204.941 75.6688 209.656C83.7179 214.372 95.0263 220.024 100.803 222.215L111.304 226.199V242.132V258.064L101.335 257.615C91.0552 257.152 11.4293 216.256 4.13389 209.656Z" fill="#002855"/>
<path d="M85 59.2801C84.9372 56.0311 164.649 13.7382 176.162 6.12604C181.257 2.75602 186.924 0 188.752 0C192.398 0 218.544 18.6134 218.5 20.6461C218.486 21.3392 215.482 21.3132 207.5 25.6461C199 28.5 125 64 122.5 69.2646L110.92 76.8232L97.9833 69.2646C90.8671 65.1061 85.0256 60.6128 85 59.2801Z" fill="#E84A27"/>
<path d="M338.968 122.8H354.52V190H338.968V122.8ZM370.468 122.8H386.02V177.328H419.716V190H370.468V122.8ZM428.406 122.8H443.958V177.328H477.654V190H428.406V122.8ZM486.343 122.8H501.895V190H486.343V122.8ZM579.475 122.8V190H566.707L533.203 149.2V190H517.843V122.8H530.707L564.115 163.6V122.8H579.475ZM595.374 122.8H610.926V190H595.374V122.8ZM654.062 122.8H684.59C691.886 122.8 698.318 124.208 703.886 127.024C709.518 129.776 713.87 133.68 716.942 138.736C720.078 143.792 721.646 149.68 721.646 156.4C721.646 163.12 720.078 169.008 716.942 174.064C713.87 179.12 709.518 183.056 703.886 185.872C698.318 188.624 691.886 190 684.59 190H654.062V122.8ZM683.822 177.232C690.542 177.232 695.886 175.376 699.854 171.664C703.886 167.888 705.902 162.8 705.902 156.4C705.902 150 703.886 144.944 699.854 141.232C695.886 137.456 690.542 135.568 683.822 135.568H669.614V177.232H683.822ZM776.693 175.6H745.493L739.541 190H723.605L753.557 122.8H768.917L798.965 190H782.645L776.693 175.6ZM771.797 163.792L761.141 138.064L750.485 163.792H771.797ZM837.543 191.152C830.567 191.152 824.263 189.648 818.631 186.64C813.063 183.632 808.679 179.504 805.479 174.256C802.343 168.944 800.775 162.992 800.775 156.4C800.775 149.808 802.343 143.888 805.479 138.64C808.679 133.328 813.063 129.168 818.631 126.16C824.263 123.152 830.567 121.648 837.543 121.648C844.519 121.648 850.791 123.152 856.359 126.16C861.927 129.168 866.311 133.328 869.511 138.64C872.711 143.888 874.311 149.808 874.311 156.4C874.311 162.992 872.711 168.944 869.511 174.256C866.311 179.504 861.927 183.632 856.359 186.64C850.791 189.648 844.519 191.152 837.543 191.152ZM837.543 177.904C841.511 177.904 845.095 177.008 848.295 175.216C851.495 173.36 853.991 170.8 855.783 167.536C857.639 164.272 858.567 160.56 858.567 156.4C858.567 152.24 857.639 148.528 855.783 145.264C853.991 142 851.495 139.472 848.295 137.68C845.095 135.824 841.511 134.896 837.543 134.896C833.575 134.896 829.991 135.824 826.791 137.68C823.591 139.472 821.063 142 819.207 145.264C817.415 148.528 816.519 152.24 816.519 156.4C816.519 160.56 817.415 164.272 819.207 167.536C821.063 170.8 823.591 173.36 826.791 175.216C829.991 177.008 833.575 177.904 837.543 177.904Z" fill="black"/>
</svg>
