<svg width="885" height="283" viewBox="0 0 885 283" fill="none" xmlns="http://www.w3.org/2000/svg">
<path d="M122.935 86.0069C128.451 77.1597 134.3 72.2036 150.833 62.361C172.88 49.2368 223.829 27.4924 226.135 33.4998C228.119 38.6723 234.698 68.6648 232.635 71.4999C231.695 72.793 174.276 95.889 168.788 99.4474C157.565 106.722 154.341 113.051 154.341 127.81V137.962L136.698 147.697C124.906 154.205 118.283 156.661 116.724 155.103C115.333 153.712 114.707 141.553 115.175 124.984C115.91 98.8125 116.361 96.5472 122.935 86.0069Z" fill="white"/>
<path d="M65.9401 110.697C65.9401 102.031 67.5499 89.5188 69.5203 82.8927C73.5495 69.322 75.6269 68.5568 88.4893 75.8922C103.864 84.6603 105.32 86.5697 102.95 94.8331C101.787 98.8892 100.835 111.895 100.835 123.735C100.835 135.578 100.112 145.265 99.2253 145.265C98.3413 145.265 90.4899 141.032 81.7778 135.857L65.9401 126.452V110.697Z" fill="#002855"/>
<path d="M189.264 102.955C189.248 102.069 195.78 97.638 203.776 93.1051C211.774 88.5745 219.644 84.851 221.27 84.8301C228.893 84.7394 263.684 112.295 263.677 118.421C263.674 120.349 246.245 131.768 237.466 135.594C236.461 136.031 231.589 132.734 226.639 128.261C221.689 123.791 211.262 116.63 203.466 112.348C195.671 108.067 189.278 103.841 189.264 102.955Z" fill="#E84A27"/>
<path d="M165.973 133.936C165.973 123.277 167.085 114.849 168.704 113.23C170.793 111.141 174.478 112.216 184.407 117.816C228.568 142.725 232.909 144.166 232.909 187.5C232.909 205.315 235.223 281.026 232.909 281.912C231.199 282.568 222.3 278.782 213.135 273.5C196.904 264.143 196.469 263.653 196.469 254.715C196.469 241.779 198.258 169.2 190.135 165C177.191 158.309 165.973 153.363 165.973 133.936Z" fill="#002855"/>
<path d="M244.973 157.805C242.17 150.437 244.101 147.756 258.254 139.362C263.158 136.455 268.862 133.976 270.933 133.855C276.027 133.559 278.119 231.685 278.119 250.419V264.692L262.421 273.886C253.785 278.944 245.934 282.596 244.973 282C244.01 281.407 243.224 271.632 243.224 260.278C243.224 248.923 246.306 161.308 244.973 157.805Z" fill="white"/>
<path d="M7.24536 155.527C7.24536 153.892 14.0499 148.591 22.3666 143.752C39.8188 133.593 42.7709 133.183 53.1348 139.5C57.3245 142.054 114.444 168.506 118.283 168.506C122.121 168.506 128.688 166.415 132.878 163.862C137.068 161.308 142.242 159.219 144.375 159.219C149.174 159.219 179.931 177.265 179.931 180.081C179.931 183.226 140.467 204.99 129.477 207.904C124.119 209.325 115.468 209.804 110.25 208.972C99.181 207.202 7.24536 159.895 7.24536 155.527Z" fill="#E84A27"/>
<path d="M138.057 221.128C145.094 218.214 157.133 212.077 164.81 207.49L178.768 199.15L179.447 217.849C179.977 232.404 179.305 237.455 176.418 240.648C170.642 247.028 146.041 257.143 135.118 257.626L125.262 258.064V242.246V226.427L138.057 221.128Z" fill="white"/>
<path d="M4.13389 209.656C0.842118 206.679 0 202.199 0 187.67C0 177.635 0.991021 169.425 2.20072 169.425C3.41274 169.425 67.622 204.941 75.6688 209.656C83.7179 214.372 95.0263 220.024 100.803 222.215L111.304 226.199V242.132V258.064L101.335 257.615C91.0552 257.152 11.4293 216.256 4.13389 209.656Z" fill="#002855"/>
<path d="M85 59.2801C84.9372 56.0311 164.649 13.7382 176.162 6.12604C181.257 2.75602 186.924 0 188.752 0C192.398 0 218.544 18.6134 218.5 20.6461C218.486 21.3392 215.482 21.3132 207.5 25.6461C199 28.5 125 64 122.5 69.2646L110.92 76.8232L97.9833 69.2646C90.8671 65.1061 85.0256 60.6128 85 59.2801Z" fill="#E84A27"/>
<path d="M338.968 126.8H354.52V194H338.968V126.8ZM370.468 126.8H386.02V181.328H419.716V194H370.468V126.8ZM428.406 126.8H443.958V181.328H477.654V194H428.406V126.8ZM486.343 126.8H501.895V194H486.343V126.8ZM579.475 126.8V194H566.707L533.203 153.2V194H517.843V126.8H530.707L564.115 167.6V126.8H579.475ZM595.374 126.8H610.926V194H595.374V126.8ZM654.062 126.8H684.59C691.886 126.8 698.318 128.208 703.886 131.024C709.518 133.776 713.87 137.68 716.942 142.736C720.078 147.792 721.646 153.68 721.646 160.4C721.646 167.12 720.078 173.008 716.942 178.064C713.87 183.12 709.518 187.056 703.886 189.872C698.318 192.624 691.886 194 684.59 194H654.062V126.8ZM683.822 181.232C690.542 181.232 695.886 179.376 699.854 175.664C703.886 171.888 705.902 166.8 705.902 160.4C705.902 154 703.886 148.944 699.854 145.232C695.886 141.456 690.542 139.568 683.822 139.568H669.614V181.232H683.822ZM776.693 179.6H745.493L739.541 194H723.605L753.557 126.8H768.917L798.965 194H782.645L776.693 179.6ZM771.797 167.792L761.141 142.064L750.485 167.792H771.797ZM837.543 195.152C830.567 195.152 824.263 193.648 818.631 190.64C813.063 187.632 808.679 183.504 805.479 178.256C802.343 172.944 800.775 166.992 800.775 160.4C800.775 153.808 802.343 147.888 805.479 142.64C808.679 137.328 813.063 133.168 818.631 130.16C824.263 127.152 830.567 125.648 837.543 125.648C844.519 125.648 850.791 127.152 856.359 130.16C861.927 133.168 866.311 137.328 869.511 142.64C872.711 147.888 874.311 153.808 874.311 160.4C874.311 166.992 872.711 172.944 869.511 178.256C866.311 183.504 861.927 187.632 856.359 190.64C850.791 193.648 844.519 195.152 837.543 195.152ZM837.543 181.904C841.511 181.904 845.095 181.008 848.295 179.216C851.495 177.36 853.991 174.8 855.783 171.536C857.639 168.272 858.567 164.56 858.567 160.4C858.567 156.24 857.639 152.528 855.783 149.264C853.991 146 851.495 143.472 848.295 141.68C845.095 139.824 841.511 138.896 837.543 138.896C833.575 138.896 829.991 139.824 826.791 141.68C823.591 143.472 821.063 146 819.207 149.264C817.415 152.528 816.519 156.24 816.519 160.4C816.519 164.56 817.415 168.272 819.207 171.536C821.063 174.8 823.591 177.36 826.791 179.216C829.991 181.008 833.575 181.904 837.543 181.904Z" fill="white"/>
</svg>
